<?xml version="1.0" encoding="UTF-8" standalone="no"?>
<!-- Created with Inkscape (http://www.inkscape.org/) -->

<svg
   xmlns:dc="http://purl.org/dc/elements/1.1/"
   xmlns:cc="http://creativecommons.org/ns#"
   xmlns:rdf="http://www.w3.org/1999/02/22-rdf-syntax-ns#"
   xmlns:svg="http://www.w3.org/2000/svg"
   xmlns="http://www.w3.org/2000/svg"
   xmlns:sodipodi="http://sodipodi.sourceforge.net/DTD/sodipodi-0.dtd"
   xmlns:inkscape="http://www.inkscape.org/namespaces/inkscape"
   version="1.1"
   id="svg3699"
   xml:space="preserve"
   width="793.3335"
   height="1121.3333"
   viewBox="0 0 793.3335 1121.3333"
   sodipodi:docname="pyro_logo_vector_v2_ROBOTICS.svg"
   inkscape:version="0.92.2 (5c3e80d, 2017-08-06)"><metadata
     id="metadata3705"><rdf:RDF><cc:Work
         rdf:about=""><dc:format>image/svg+xml</dc:format><dc:type
           rdf:resource="http://purl.org/dc/dcmitype/StillImage" /><dc:title></dc:title></cc:Work></rdf:RDF></metadata><defs
     id="defs3703" /><sodipodi:namedview
     pagecolor="#ffffff"
     bordercolor="#666666"
     borderopacity="1"
     objecttolerance="10"
     gridtolerance="10"
     guidetolerance="10"
     inkscape:pageopacity="0"
     inkscape:pageshadow="2"
     inkscape:window-width="1117"
     inkscape:window-height="822"
     id="namedview3701"
     showgrid="false"
     showguides="true"
     inkscape:measure-start="748.951,302.098"
     inkscape:measure-end="648.754,458.975"
     inkscape:zoom="0.76367532"
     inkscape:cx="391.58951"
     inkscape:cy="570.15801"
     inkscape:window-x="0"
     inkscape:window-y="-2"
     inkscape:window-maximized="0"
     inkscape:current-layer="g3707" /><g
     id="g3707"
     inkscape:groupmode="layer"
     inkscape:label="pyro_logo_vector_v2"
     transform="matrix(1.3333333,0,0,-1.3333333,0,1121.3333)"><path
       d="m 506.1237,465.8797 c 23.4301,0 41.023,-4.0003 52.7789,-11.96 11.7558,-7.9596 17.6337,-20.5319 17.6337,-37.7166 0,-17.2664 -5.8371,-29.9203 -17.5521,-37.88 -11.715,-7.9596 -29.308,-11.9599 -52.8605,-11.9599 -23.6341,0 -41.2679,4.0003 -52.9013,11.9599 -11.6742,7.9597 -17.5113,20.6136 -17.5113,37.88 0,17.1847 5.8779,29.757 17.593,37.7166 11.715,7.9597 29.3079,11.96 52.8196,11.96 z M 154.6152,428.163 c 0,-5.3881 -1.0613,-10.2455 -3.1431,-14.6131 -2.1226,-4.3677 -5.2248,-8.123 -9.3067,-11.1844 -4.0819,-3.0614 -9.0618,-5.4698 -14.8989,-7.1841 -5.8371,-1.7553 -12.5314,-2.6125 -20.0012,-2.6125 H 56.8539 V 367.9551 H 27.1786 v 49.2685 h 82.944 c 4.6125,0 8.2046,1.0204 10.7762,3.0206 2.5307,2.0001 3.7961,4.6941 3.7961,8.0413 0,3.3879 -1.2654,6.0412 -3.7961,8.0005 -2.5716,1.9593 -6.1637,2.9389 -10.7762,2.9389 h -82.944 l 19.7563,25.0628 h 60.4528 c 7.4699,0 14.1642,-0.898 20.0421,-2.6532 5.8371,-1.7552 10.7762,-4.2451 14.8173,-7.3882 4.041,-3.1839 7.1024,-6.98 9.225,-11.3885 2.0818,-4.4492 3.1431,-9.3475 3.1431,-14.6948 z m 55.1304,69.3471 c 0,-12.4092 7.0067,-30.6879 -3.8928,-30.6879 -5.7092,0 -5.7092,8.8878 -5.7092,14.6733 -4.1491,-2.619 -5.571,-13.6764 -5.4406,-22.6219 l -4.6547,5.4141 h -38.329 l 58.7792,-64.3714 v -31.9612 h 29.9203 v 31.8388 l 57.1872,64.4938 h -37.4309 l -4.4966,-5.4677 c -0.006,5.4116 -1.0531,10.5894 -3.6329,14.207 0,-2.2641 -0.519,-8.8042 -0.9082,-10.5648 -1.9463,-7.3785 -7.0067,-6.9593 -9.3424,-4.1085 -3.7627,4.4439 -1.4273,11.6546 -0.1296,16.5178 1.0381,4.5277 1.6867,14.254 0,18.9493 -0.519,1.3416 -0.6488,1.3416 -1.4275,2.8508 -0.9082,1.2577 -0.6485,1.1741 -1.9462,2.4315 0,-23.3931 -26.2106,-18.1947 -17.9062,18.1951 0.2596,1.2577 0.6488,2.8508 1.038,4.4438 -3.2439,-0.2517 -7.2663,-6.7079 -8.5637,-9.5587 -1.8167,-4.0246 -3.1142,-9.1391 -3.1142,-14.6732 z m -2.8845,-52.778 c -0.5437,2.4608 -1.0083,5.0839 -1.0083,6.9976 0,-0.1678 0.1298,-0.1678 0.1298,-0.3353 1.6869,-3.354 3.1142,-8.301 9.8615,-8.301 4.9306,0 7.9149,10.6486 7.9149,16.1824 0,9.6426 -0.9082,10.0619 -2.8545,18.2787 4.282,-2.7669 7.0067,-12.4932 8.0447,-17.5238 1.4276,-6.5401 -0.519,-20.2074 5.9689,-20.2074 3.3736,0 4.6713,3.0187 7.2664,5.9534 0,-1.2867 -0.0868,-2.5104 -0.2551,-3.676 l -3.674,-4.4677 c -3.4696,-4.2043 -6.082,-7.4699 -7.9189,-9.7557 -1.8368,-2.3267 -3.2247,-4.1227 -4.1635,-5.4697 -0.4899,0.6531 -1.3062,1.6735 -2.4492,3.0206 -1.1429,1.347 -2.3675,2.7756 -3.7145,4.3268 -1.347,1.5103 -2.6532,2.9797 -3.9186,4.3676 -1.2654,1.3878 -2.245,2.5308 -3.0206,3.388 z M 431.39,367.9551 h -39.8801 l -21.4707,25.471 h -45.7988 v -25.471 h -29.7978 v 49.2685 h 83.8012 c 4.6125,0 8.5311,0.9796 11.715,2.8981 3.1431,1.9185 4.735,4.5309 4.735,7.878 0,3.7554 -1.4287,6.5719 -4.3268,8.4496 -2.8981,1.8368 -6.9392,2.7756 -12.1232,2.7756 h -83.8012 l 19.4298,25.0628 h 61.9222 c 5.4698,0 11.1436,-0.4898 17.0215,-1.5103 5.8371,-1.0204 11.1844,-2.8165 16.001,-5.388 4.7758,-2.5716 8.7353,-6.0821 11.8783,-10.4905 3.1023,-4.4493 4.6534,-10.1231 4.6534,-17.0215 0,-3.7553 -0.5715,-7.3066 -1.7144,-10.6537 -1.1838,-3.388 -2.8165,-6.4086 -4.9799,-9.0618 -2.1634,-2.6941 -4.7758,-4.9799 -7.9189,-6.8576 -3.143,-1.8777 -6.6535,-3.1839 -10.5721,-3.9594 1.6328,-1.2654 3.4696,-2.8165 5.4698,-4.735 2.0001,-1.9185 4.6941,-4.5717 8.0413,-7.9189 z m 74.7337,23.4709 c 7.4699,0 13.8376,0.3266 19.0216,0.9389 5.184,0.6122 9.3884,1.8368 12.6131,3.6737 3.2247,1.8368 5.5513,4.3268 6.98,7.5514 1.4287,3.2247 2.1634,7.4291 2.1634,12.6131 0,5.184 -0.7347,9.3883 -2.1634,12.613 -1.4287,3.2247 -3.7553,5.7147 -6.98,7.4699 -3.2247,1.7552 -7.4291,2.9798 -12.6131,3.592 -5.184,0.6123 -11.5517,0.9389 -19.0216,0.9389 -7.4698,0 -13.7968,-0.3266 -18.9808,-0.9389 -5.184,-0.6122 -9.3883,-1.8368 -12.613,-3.592 -3.2247,-1.7552 -5.5514,-4.2452 -6.98,-7.4699 -1.4287,-3.2247 -2.1634,-7.429 -2.1634,-12.613 0,-5.184 0.7347,-9.3884 2.1634,-12.6131 1.4286,-3.2246 3.7553,-5.7146 6.98,-7.5514 3.2247,-1.8369 7.429,-3.0615 12.613,-3.6737 5.184,-0.6123 11.511,-0.9389 18.9808,-0.9389"
       style="fill:#000000;fill-opacity:1;fill-rule:evenodd;stroke:none"
       id="path3709"
       inkscape:connector-curvature="0" /><rect
       style="fill:#000000;fill-opacity:1;stroke-width:0.75"
       id="rect3713"
       width="549.20276"
       height="9.1661243"
       x="27.125175"
       y="-353.9216"
       transform="scale(1,-1)"
       ry="0" /><text
       xml:space="preserve"
       style="font-style:normal;font-variant:normal;font-weight:normal;font-stretch:normal;font-size:52px;line-height:1.25;font-family:Ethnocentric;-inkscape-font-specification:Ethnocentric;letter-spacing:0px;word-spacing:0px;fill:#000000;fill-opacity:1;stroke:none;stroke-width:0.75"
       x="114.20056"
       y="-298.28238"
       id="text3717"
       transform="scale(1,-1)"><tspan
         sodipodi:role="line"
         id="tspan3715"
         x="114.20056"
         y="-298.28238"
         style="font-style:normal;font-variant:normal;font-weight:normal;font-stretch:normal;font-size:52px;font-family:Ethnocentric;-inkscape-font-specification:Ethnocentric;stroke-width:0.75">ROBOTICS</tspan></text>
</g></svg>